# xmcd
#
# Track frame offsets:
#	150
#	12713
#	32070
#	49478
#	65405
#	77279
#	88499
#	103815
#	120745
#	134128
#	146275
#	155859
#	166373
#	178258
#	195938
#	206936
#	231424
#
# Disc length: 3231 seconds
#
# Revision: 1
# Processed by: cddbd v1.5.2PL0 Copyright (c) Steve Scherf et al.
# Submitted via: EasyCDDAExtractor 10.5.1.1
#
DISCID=040c9d11
DTITLE=K-PAZ DE LA SIERRA - EN VIVO
DYEAR=1900
DGENRE=Country
TTITLE0=JAMBALAYA
TTITLE1=RAFITA POLKA
TTITLE2=MI ETERNO AMOR SECRETO
TTITLE3=CON OLOR A HIERBA
TTITLE4=LAS TRES TUMBAS
TTITLE5=LAS ISABELES
TTITLE6=EL GAVILAN
TTITLE7=MI GUSTO ES
TTITLE8=ECHAME A MI LA CULPA
TTITLE9=AYER BAJE DE LA SIERRA
TTITLE10=SE LES PELO BALTAZAR
TTITLE11=EL DOMINGO SE CASA
TTITLE12=NO VOLVERE
TTITLE13=LA LUPE
TTITLE14=ALLA EN EL KIOSKO
TTITLE15=JAMBALAYA
TTITLE16=DATA INFO
EXTD=
EXTT0=
EXTT1=
EXTT2=
EXTT3=
EXTT4=
EXTT5=
EXTT6=
EXTT7=
EXTT8=
EXTT9=
EXTT10=
EXTT11=
EXTT12=
EXTT13=
EXTT14=
EXTT15=
EXTT16=
PLAYORDER=
